<?xml version="1.0" standalone="no"?>
<!DOCTYPE svg PUBLIC "-//W3C//DTD SVG 20010904//EN"
 "http://www.w3.org/TR/2001/REC-SVG-20010904/DTD/svg10.dtd">
<svg version="1.0" xmlns="http://www.w3.org/2000/svg"
 width="216.000000pt" height="216.000000pt" viewBox="0 0 216.000000 216.000000"
 preserveAspectRatio="xMidYMid meet">
<metadata>
Created by potrace 1.14, written by Peter Selinger 2001-2017
</metadata>
<g transform="translate(0.000000,216.000000) scale(0.100000,-0.100000)"
fill="#000000" stroke="none">
<path d="M697 2106 c-20 -7 -44 -20 -53 -27 -16 -13 -45 -64 -44 -76 4 -33
-14 -71 -40 -86 -17 -10 -30 -16 -30 -13 0 9 -76 -17 -94 -32 -50 -45 -66
-131 -37 -197 23 -51 63 -80 126 -89 35 -6 46 -13 60 -40 38 -71 -6 -119 -107
-118 -97 0 -154 -30 -184 -99 -7 -15 -13 -85 -13 -168 -1 -78 -7 -152 -13
-165 -11 -26 -47 -46 -81 -46 -33 0 -84 -35 -102 -71 -41 -78 -15 -183 54
-223 32 -18 55 -20 283 -21 267 -1 267 -1 268 -52 0 -29 -88 -89 -143 -99 -22
-3 -100 -7 -175 -8 -161 -1 -192 -13 -231 -87 -20 -37 -23 -53 -17 -92 9 -61
53 -113 107 -127 55 -15 356 -11 426 5 100 24 190 73 267 148 34 32 103 58
155 59 60 0 121 -27 181 -81 25 -22 75 -56 111 -76 104 -54 166 -65 380 -62
l186 2 37 29 c67 51 82 120 44 196 -37 73 -69 85 -230 86 -159 2 -200 8 -248
37 -54 33 -70 50 -70 72 1 49 3 49 262 50 134 1 254 5 268 9 80 26 119 134 81
221 -21 47 -69 85 -108 85 -36 0 -71 21 -82 49 -6 14 -11 94 -13 176 -3 167
-9 186 -75 226 -35 22 -64 27 -151 28 -110 2 -124 138 -16 157 16 3 38 7 49
11 70 20 113 131 80 209 -24 59 -52 82 -112 94 -64 14 -89 37 -96 91 -10 75
-52 112 -140 124 -34 5 -57 1 -91 -13 -52 -23 -76 -55 -83 -111 -3 -24 -15
-49 -30 -63 -21 -20 -36 -23 -116 -25 -51 -1 -106 3 -123 8 -32 10 -54 43 -54
80 0 86 -126 151 -223 115z m510 -536 c40 -26 44 -80 8 -115 -23 -24 -31 -25
-135 -25 -104 0 -112 1 -135 25 -14 13 -25 35 -25 47 0 30 26 67 53 77 37 14
210 7 234 -9z m-312 -486 c41 -44 26 -106 -29 -123 -42 -14 -208 -12 -227 3
-44 32 -50 87 -13 121 25 23 34 25 136 25 105 0 110 -1 133 -26z m632 11 c45
-31 38 -110 -11 -133 -38 -17 -206 -13 -237 5 -45 27 -52 81 -14 118 23 23 31
25 132 25 80 0 114 -4 130 -15z"/>
</g>
</svg>
